# xmcd CD database file
#
# Track frame offsets:
#	150
#	15469
#	35487
#	50180
#	62306
#	76145
#	92444
#	109220
#	129402
#	141252
#
# Disc length: 2192 seconds
#
# Revision: 0
# Processed by: cddbd v1.5.2PL0 Copyright (c) Steve Scherf et al.
# Submitted via: CDex 1.51
#
DISCID=7a088e0a
DTITLE=Ray Charles - Genius+Soul=Jazz
DYEAR=1961
DGENRE=Jazz
TTITLE0=Ray Charles - From The Heart
TTITLE1=Ray Charles - I`v Got News For You
TTITLE2=Ray Charles - Moanin`
TTITLE3=Ray Charles - Let`s Go
TTITLE4=Ray Charles - One Mint Julep
TTITLE5=Ray Charles - I`m Gonna Move To The Outskirts Of Town
TTITLE6=Ray Charles - Stompin` Room Only
TTITLE7=Ray Charles - Mister C
TTITLE8=Ray Charles - Strike Up The Band
TTITLE9=Ray Charles - Birth Of The Blues
EXTD=YEAR: 1961
EXTT0=
EXTT1=
EXTT2=
EXTT3=
EXTT4=
EXTT5=
EXTT6=
EXTT7=
EXTT8=
EXTT9=
PLAYORDER=
